<svg width="34" height="24" viewBox="0 0 34 24" fill="none" xmlns="http://www.w3.org/2000/svg">
<path d="M33.5 20.8C33.5 22.287 32.2812 23.5 30.7619 23.5H3.2381C1.71884 23.5 0.5 22.287 0.5 20.8V3.2C0.5 1.71295 1.71884 0.5 3.2381 0.5H30.7619C32.2812 0.5 33.5 1.71295 33.5 3.2V20.8Z" fill="white" stroke="#E3E4E5"/>
<path d="M23.7167 6.71543L24.4081 4.88808H27.4702V1.5791H6.52979V22.5195H27.4702V19.2105H24.5563L23.4698 17.9758L22.3833 19.2105H14.1849V12.5926H11.4686L14.8763 4.93747H18.1853L18.9755 6.66604V4.93747H23.0747L23.7167 6.71543ZM21.4449 7.95012V7.20931L21.7412 7.95012L23.1241 11.6048H24.4081L25.791 7.95012L26.0379 7.20931V11.5554H27.4702V5.97461H25.0996L24.013 8.78971L23.7167 9.57992L23.4204 8.78971L22.3339 5.97461H19.9633V11.5554H21.4449V7.95012ZM18.3828 11.5554H20.0126L17.5433 5.97461H15.6171L13.1477 11.5554H14.7775L15.222 10.4689H17.9384L18.3828 11.5554ZM16.3086 7.90074L16.6049 7.20931L16.9012 7.90074L17.4939 9.33298H15.7653L16.3086 7.90074ZM15.3208 12.5926V18.1734H19.9633V16.9881H16.7037V16.0003H19.8645V14.815H16.7037V13.8273H19.9633V12.642L15.3208 12.5926ZM25.1984 18.124H27.0257L24.4081 15.3583L27.0257 12.5926H25.1984L23.5192 14.4199L21.84 12.5926H19.9633L22.5808 15.4077L19.9633 18.1734H21.7412L23.4204 16.346L25.1984 18.124ZM25.8898 15.3583L27.4702 16.9881V13.7779L25.8898 15.3583Z" fill="#006FCF"/>
</svg>
