<svg width="34" height="24" viewBox="0 0 34 24" fill="none" xmlns="http://www.w3.org/2000/svg">
<rect x="0.5" y="0.5" width="33" height="23" rx="2.5" fill="white"/>
<rect x="0.5" y="0.5" width="33" height="23" rx="2.5" stroke="#E3E4E5"/>
<path fill-rule="evenodd" clip-rule="evenodd" d="M7.7133 8.71156C8.25728 8 9.01413 8 9.01413 8C9.01413 8 9.12056 8.6649 8.5884 9.30646C8.00894 9.98302 7.35852 9.86638 7.35852 9.86638C7.35852 9.86638 7.22844 9.34146 7.7133 8.71156ZM5.98673 9.98302C5.02884 9.98302 4 10.8346 4 12.4443C4 14.0891 5.20623 16.1421 6.17594 16.1421C6.50707 16.1421 7.0274 15.8038 7.54773 15.8038C8.05624 15.8038 8.43467 16.1187 8.9077 16.1187C9.96019 16.1187 10.7407 13.9607 10.7407 13.9607C10.7407 13.9607 9.62907 13.5408 9.62907 12.3043C9.62907 11.2078 10.5278 10.7646 10.5278 10.7646C10.5278 10.7646 10.0666 9.94803 8.9077 9.94803C8.23363 9.94803 7.7133 10.3213 7.4413 10.3213C7.09835 10.333 6.6135 9.98302 5.98673 9.98302Z" fill="#0F172A"/>
<path d="M15.9446 8.55859C17.3992 8.55859 18.428 9.55011 18.428 10.9965C18.428 12.443 17.3874 13.4462 15.9091 13.4462H14.1708V15.9774H13V8.55859H15.9446ZM14.1708 12.478H15.6372C16.6423 12.478 17.2336 11.9414 17.2336 11.0082C17.2336 10.075 16.6542 9.52678 15.6372 9.52678H14.1708V12.478Z" fill="#0F172A"/>
<path d="M18.6523 14.3797C18.6523 13.3998 19.421 12.8399 20.8165 12.7466L22.342 12.6649V12.2333C22.342 11.5918 21.9044 11.2418 21.1594 11.2418C20.5445 11.2418 20.0951 11.5568 20.0005 12.035H18.948C18.9835 11.0435 19.9295 10.3203 21.1949 10.3203C22.5785 10.3203 23.4654 11.0435 23.4654 12.14V15.9661H22.3893V15.0329H22.3656C22.0582 15.6395 21.3486 16.0244 20.5799 16.0244C19.4328 16.0361 18.6523 15.3712 18.6523 14.3797ZM22.342 13.8781V13.4465L20.9702 13.5398C20.2015 13.5865 19.7994 13.8664 19.7994 14.368C19.7994 14.8463 20.2252 15.1496 20.8756 15.1496C21.7034 15.1379 22.342 14.613 22.342 13.8781Z" fill="#0F172A"/>
<path d="M24.6948 17.9727V17.0629C24.7776 17.0862 24.955 17.0862 25.0496 17.0862C25.5817 17.0862 25.8892 16.8646 26.0784 16.2697L26.1612 15.978L24.1035 10.3789H25.3216L26.7761 14.9399H26.7998L28.2544 10.3789H29.4369L27.3201 16.223C26.8353 17.5645 26.3031 17.996 25.1442 17.996C25.0614 18.0077 24.7894 17.9844 24.6948 17.9727Z" fill="#0F172A"/>
</svg>
