<svg width="34" height="24" viewBox="0 0 34 24" fill="none" xmlns="http://www.w3.org/2000/svg">
<path d="M33.5 20.8C33.5 22.2777 32.2717 23.5 30.7619 23.5H3.2381C1.72832 23.5 0.5 22.2777 0.5 20.8V3.2C0.5 1.72233 1.72832 0.5 3.2381 0.5H30.7619C32.2717 0.5 33.5 1.72233 33.5 3.2V20.8Z" fill="white" stroke="#E3E4E5"/>
<path d="M20.7143 6H13.0952C9.74405 6 7 8.7612 7 12.1333C7 15.5055 9.74405 18.2667 13.0952 18.2667H20.7143C24.0655 18.2667 26.8095 15.5055 26.8095 12.1333C26.8095 8.7612 24.0655 6 20.7143 6Z" fill="#1565C0"/>
<path d="M13.0949 7.5332C10.58 7.5332 8.52344 9.6026 8.52344 12.1332C8.52344 14.6638 10.58 16.7332 13.0949 16.7332C15.6097 16.7332 17.6663 14.6638 17.6663 12.1332C17.6663 9.6026 15.6097 7.5332 13.0949 7.5332ZM10.0472 12.1332C10.0472 10.6777 11.0383 9.52773 12.333 9.1444V15.0471C11.0383 14.7387 10.0472 13.5887 10.0472 12.1332ZM13.8568 15.122V9.21927C15.1514 9.52773 16.1425 10.7526 16.1425 12.2111C16.1425 13.5887 15.1514 14.7387 13.8568 15.122Z" fill="white"/>
</svg>
