<svg width="34" height="24" viewBox="0 0 34 24" fill="none" xmlns="http://www.w3.org/2000/svg">
<rect x="0.5" y="0.5" width="33" height="23" rx="2.5" fill="white"/>
<rect x="0.5" y="0.5" width="33" height="23" rx="2.5" stroke="#E3E4E5"/>
<path d="M15.9751 11.8631V14.811H15.0332V7.53125H17.5302C18.163 7.53125 18.7026 7.74078 19.1441 8.15983C19.5955 8.57888 19.8211 9.09051 19.8211 9.69472C19.8211 10.3136 19.5955 10.8252 19.1441 11.2394C18.7075 11.6535 18.1679 11.8582 17.5302 11.8582H15.9751V11.8631ZM15.9751 8.42782V10.9665H17.5498C17.9226 10.9665 18.2366 10.8398 18.4819 10.5913C18.7321 10.3428 18.8596 10.0407 18.8596 9.69959C18.8596 9.36338 18.7321 9.06614 18.4819 8.81764C18.2366 8.55939 17.9275 8.4327 17.5498 8.4327H15.9751V8.42782Z" fill="#17262B"/>
<path d="M22.2836 9.66406C22.9802 9.66406 23.5297 9.84922 23.9319 10.2195C24.3342 10.5899 24.5353 11.0966 24.5353 11.7398V14.8096H23.6376V14.1177H23.5984C23.2108 14.6878 22.6908 14.9704 22.0433 14.9704C21.4889 14.9704 21.0278 14.8096 20.655 14.4831C20.2821 14.1567 20.0957 13.7522 20.0957 13.265C20.0957 12.7485 20.2919 12.3392 20.6844 12.0371C21.0768 11.7301 21.6017 11.579 22.2542 11.579C22.8134 11.579 23.2746 11.6814 23.6327 11.886V11.6716C23.6327 11.3451 23.5051 11.0723 23.2451 10.8433C22.9851 10.6142 22.681 10.5022 22.3327 10.5022C21.8078 10.5022 21.3908 10.7214 21.0866 11.1648L20.2576 10.6483C20.7138 9.99053 21.3908 9.66406 22.2836 9.66406ZM21.067 13.2796C21.067 13.5232 21.17 13.7279 21.381 13.8887C21.587 14.0495 21.8323 14.1323 22.1119 14.1323C22.5093 14.1323 22.8625 13.9861 23.1716 13.6938C23.4806 13.4014 23.6376 13.0603 23.6376 12.6656C23.3433 12.4366 22.9361 12.3197 22.4112 12.3197C22.0285 12.3197 21.7097 12.4123 21.4546 12.5925C21.1946 12.7826 21.067 13.0116 21.067 13.2796Z" fill="#17262B"/>
<path d="M29.6562 9.82422L26.5165 16.9968H25.5452L26.7128 14.4874L24.6426 9.82422H25.6679L27.1592 13.4008H27.1788L28.6309 9.82422H29.6562Z" fill="#17262B"/>
<path d="M12.2277 11.2682C12.2277 10.9632 12.2003 10.6713 12.1493 10.3906H8.20117V11.9986L10.4749 11.9991C10.3827 12.5341 10.0859 12.9902 9.63117 13.2943V14.3375H10.9846C11.7749 13.611 12.2277 12.537 12.2277 11.2682Z" fill="#4285F4"/>
<path d="M9.63255 13.2917C9.2558 13.5441 8.77063 13.6917 8.20304 13.6917C7.10663 13.6917 6.17651 12.9579 5.84342 11.9688H4.44727V13.0446C5.13896 14.408 6.56063 15.3436 8.20304 15.3436C9.33821 15.3436 10.2919 14.9728 10.986 14.3344L9.63255 13.2917Z" fill="#34A853"/>
<path d="M5.71159 11.1753C5.71159 10.8976 5.75819 10.6291 5.84306 10.3767V9.30078H4.44691C4.16091 9.86455 4 10.5009 4 11.1753C4 11.8497 4.1614 12.4861 4.44691 13.0498L5.84306 11.9739C5.75819 11.7215 5.71159 11.453 5.71159 11.1753Z" fill="#FABB05"/>
<path d="M8.20304 8.65184C8.82263 8.65184 9.37746 8.8638 9.81553 9.27798L11.015 8.08758C10.2865 7.41369 9.33674 7 8.20304 7C6.56112 7 5.13896 7.93555 4.44727 9.29893L5.84342 10.3748C6.17651 9.38566 7.10663 8.65184 8.20304 8.65184Z" fill="#E94235"/>
</svg>
