<svg width="34" height="24" viewBox="0 0 34 24" fill="none" xmlns="http://www.w3.org/2000/svg">
<path d="M33.5 20.8C33.5 22.287 32.2812 23.5 30.7619 23.5H3.2381C1.71884 23.5 0.5 22.287 0.5 20.8V3.2C0.5 1.71295 1.71884 0.5 3.2381 0.5H30.7619C32.2812 0.5 33.5 1.71295 33.5 3.2V20.8Z" fill="white" stroke="#E3E4E5"/>
<g clip-path="url(#clip0_1075_5959)">
<path d="M19.9026 7.53516H14.0991V17.014H19.9026V7.53516Z" fill="#FF5F00"/>
<path d="M14.6968 12.2753C14.6961 11.3626 14.903 10.4617 15.3019 9.6407C15.7007 8.81975 16.2811 8.10028 16.9991 7.53675C16.1098 6.83789 15.0419 6.40331 13.9174 6.28268C12.7928 6.16205 11.657 6.36023 10.6397 6.85458C9.62248 7.34893 8.76483 8.1195 8.16481 9.07823C7.56478 10.0369 7.24658 11.1451 7.24658 12.2762C7.24658 13.4072 7.56478 14.5154 8.16481 15.4741C8.76483 16.4328 9.62248 17.2034 10.6397 17.6977C11.657 18.1921 12.7928 18.3903 13.9174 18.2696C15.0419 18.149 16.1098 17.7144 16.9991 17.0156C16.2809 16.4518 15.7004 15.7321 15.3015 14.9108C14.9026 14.0896 14.6958 13.1883 14.6968 12.2753Z" fill="#EB001B"/>
<path d="M26.1766 16.0108V15.8166H26.2603V15.7764H26.061V15.8166H26.1397V16.0108H26.1766ZM26.5634 16.0108V15.7764H26.5031L26.4328 15.9438L26.3624 15.7764H26.3021V16.0108H26.3457V15.8333L26.411 15.9857H26.4562L26.5215 15.8333V16.0108H26.5634Z" fill="#F79E1B"/>
<path d="M26.7524 12.2752C26.7524 13.4063 26.4341 14.5146 25.834 15.4734C25.2339 16.4321 24.3761 17.2027 23.3587 17.6969C22.3413 18.1912 21.2054 18.3893 20.0808 18.2685C18.9562 18.1477 17.8882 17.7129 16.999 17.0138C17.7167 16.4498 18.2969 15.7301 18.6959 14.9091C19.0949 14.0881 19.3022 13.1872 19.3022 12.2744C19.3022 11.3616 19.0949 10.4607 18.6959 9.6397C18.2969 8.8187 17.7167 8.09904 16.999 7.535C17.8882 6.83593 18.9562 6.40113 20.0808 6.28033C21.2054 6.15953 22.3413 6.35758 23.3587 6.85186C24.3761 7.34614 25.2339 8.1167 25.834 9.07546C26.4341 10.0342 26.7524 11.1425 26.7524 12.2736V12.2752Z" fill="#F79E1B"/>
</g>
<defs>
<clipPath id="clip0_1075_5959">
<rect width="22" height="14.5506" fill="white" transform="translate(6 5)"/>
</clipPath>
</defs>
</svg>
